<?xml version="1.0" encoding="UTF-8"?>
<svg id="flores_02" xmlns="http://www.w3.org/2000/svg" viewBox="0 0 781.28 557.84">
  <defs>
    <style>
      .cls-1 {
        fill: #a73;
      }

      .cls-2 {
        fill: #3cbe00;
      }
    </style>
  </defs>
  <path class="cls-2" d="M781.23,218.74c.79-14.27-9.8-28.93-32.45-38.39-1.26-.53-3.44-1.25-6.01-2.05.02-.75.01-1.5-.04-2.25.06-1,.06-2,0-3,.06-1,.06-2,0-3,.06-1,.06-2,0-3,.06-1,.06-2,0-3,.06-1,.06-2,0-3,.06-1,.06-2,0-3,.06-1,.06-2,0-3,.06-1,.06-2,0-3,.06-1,.06-2,0-3,.06-1,.06-2,0-3,.06-1,.06-2,0-3,.06-1,.06-2,0-3,.06-1,.06-2,0-3,.06-1,.06-2,0-3,1.73-27.83-46-53-103.33-48.18.04-.87.04-1.74-.02-2.61.06-1.01.06-2.01,0-3,.06-1.01.06-2.01,0-3,1.95-31.9-59.97-56.65-120.53-45.54-14.68,2.69-23.05,10.25-39.3,6.13-7.05-1.79-12.17-10.34-18.69-14.82-43.28-29.75-127.83-20.58-155.59,12.26-59.22-25.96-140.38-5.35-147.13,34.26-.12.73-.02,1.38.21,1.97-.07.34-.15.68-.21,1.03-.12.73-.02,1.38.21,1.97-.07.34-.15.68-.21,1.03-.12.73-.02,1.38.21,1.97-.07.34-.15.68-.21,1.03-.06.35-.07.69-.03,1-.02.02-.04.04-.06.05-9.74,8.85-25.64,4.18-42.59,5.17-44.85,2.63-77.68,26.64-76.19,49.42-.06,1-.06,2,0,3-.06,1-.06,2,0,3-.06,1-.06,2,0,3-.06,1-.06,2,0,3-.06,1-.06,2,0,3-.06,1-.06,2,0,3-.06,1-.06,2,0,3-.06,1-.06,2,0,3-.06,1-.06,2,0,3-.06,1-.06,2,0,3-.04.6-.06,1.2-.05,1.8C13.01,174.65-.86,191.25.05,207.52c-.06,1-.06,2,0,3-.06,1-.06,2,0,3-.06,1-.06,2,0,3-.06,1-.06,2,0,3-.06,1-.06,2,0,3-.06,1-.06,2,0,3-.06,1-.06,2,0,3-.06,1-.06,2,0,3-.06,1-.06,2,0,3-.06,1-.06,2,0,3-.06,1-.06,2,0,3-.06,1-.06,2,0,3-.06,1-.06,2,0,3-.06,1-.06,2,0,3-.06,1-.06,2,0,3-.06,1-.06,2,0,3-.06,1-.06,2,0,3-.06,1-.06,2,0,3-.06,1-.06,2,0,3-.06,1-.06,2,0,3-.06,1-.06,2,0,3-.06,1-.06,2,0,3-.06,1-.06,2,0,3-.06,1-.06,2,0,3-.06,1-.06,2,0,3-.06,1-.06,2,0,3-.06,1-.06,2,0,3-.06,1-.06,2,0,3-.06,1-.06,2,0,3-.06,1-.06,2,0,3-.06,1-.06,2,0,3-.06,1-.06,2,0,3-.06,1-.06,2,0,3-.06,1-.06,2,0,3-.06,1-.06,2,0,3-.06,1-.06,2,0,3-.06,1-.06,2,0,3-.06,1-.06,2,0,3-.06,1-.06,2,0,3-.06,1-.06,2,0,3-.06,1-.06,2,0,3-.06,1-.06,2,0,3-.06,1-.06,2,0,3-.06,1-.06,2,0,3-.06,1-.06,2,0,3-.06,1-.06,2,0,3-.68,12.35,7.05,24.81,24.26,33.77,4.06,2.11,9.36,3.78,14.66,5.41-.04.89-.04,1.77.02,2.65-.06,1.01-.06,2.01,0,3-.06,1.01-.06,2.01,0,3-.06,1.01-.06,2.01,0,3-.06,1.01-.06,2.01,0,3-.06,1.01-.06,2.01,0,3-.06,1.01-.06,2.01,0,3-.06,1.01-.06,2.01,0,3-.06,1.01-.06,2.01,0,3-.06,1.01-.06,2.01,0,3-.06,1.01-.06,2.01,0,3-.06,1.01-.06,2.01,0,3-.06,1.01-.06,2.01,0,3-.06,1.01-.06,2.01,0,3-.06,1.01-.06,2.01,0,3-1.73,28.11,45.88,51.95,102.72,48.71-.05.93-.04,1.86.02,2.78-.07,1.01-.07,2.01,0,3-.07,1.01-.07,2.01,0,3-2.06,30.32,58.42,54.54,115.28,45.4,17.78-2.86,27.92-11.66,46.23-6.94,4.1,1.06,15.77,15,23.97,19.37,42.45,22.57,126.02,15.4,144.88-15.96,9.31.02,15.15,4.2,24.72,6.45,50.26,11.8,118.09-5.43,123.89-34.79.27-1.38.27-2.76.16-4.13.1-1,.08-2.01,0-3,.1-1,.08-2.01,0-3,.1-1,.08-2.01,0-3,0-.09.02-.19.02-.28.58-1.65,1.71-3.25,3.82-4.78,9.74-7.09,29.11-3.51,43.94-4.43,41.61-2.56,74.98-26.8,73.43-48.35.08-1,.07-2,0-3,.08-1,.07-2,0-3,.08-1,.07-2,0-3,.08-1,.07-2,0-3,.08-1,.07-2,0-3,.08-1,.07-2,0-3,.08-1,.07-2,0-3,.08-1,.07-2,0-3,.08-1,.07-2,0-3,.08-1,.07-2,0-3,.06-.84.09-1.68.05-2.52,26.65-8.2,40.01-24.17,39.11-40.14.06-1,.06-2,0-3,.06-1,.06-2,0-3,.06-1,.06-2,0-3,.06-1,.06-2,0-3,.06-1,.06-2,0-3,.06-1,.06-2,0-3,.06-1,.06-2,0-3,.06-1,.06-2,0-3,.06-1,.06-2,0-3,.06-1,.06-2,0-3,.06-1,.06-2,0-3,.06-1,.06-2,0-3,.06-1,.06-2,0-3,.06-1,.06-2,0-3,.06-1,.06-2,0-3,.06-1,.06-2,0-3,.06-1,.06-2,0-3,.06-1,.06-2,0-3,.06-1,.06-2,0-3,.06-1,.06-2,0-3,.06-1,.06-2,0-3,.06-1,.06-2,0-3,.06-1,.06-2,0-3,.06-1,.06-2,0-3,.06-1,.06-2,0-3,.06-1,.06-2,0-3,.06-1,.06-2,0-3,.06-1,.06-2,0-3,.06-1,.06-2,0-3,.06-1,.06-2,0-3,.06-1,.06-2,0-3,.06-1,.06-2,0-3,.06-1,.06-2,0-3,.06-1,.06-2,0-3,.06-1,.06-2,0-3,.06-1,.06-2,0-3,.06-1,.06-2,0-3,.06-1,.06-2,0-3,.06-1,.06-2,0-3,.06-1,.06-2,0-3,.06-1,.06-2,0-3,.06-1,.06-2,0-3,.06-1,.06-2,0-3,.06-1,.06-2,0-3,.06-1,.06-2,0-3,.06-1,.06-2,0-3Z"/>
  <path class="cls-1" d="M637.27,81.05c70.8-6.85,127.84,32.17,96.93,66.25-6.23,6.87-19.62,10.38-11.46,19.66.83.94,20.92,6.24,26.05,8.38,51.92,21.69,40.46,70.68-26.11,79.73,7.62,8.71,17.78,16.89,19.26,26.83,3.26,21.91-30.71,47.23-73.29,49.85-14.83.91-34.2-2.66-43.94,4.43-7.49,5.46-2.74,11.77-4,18.19-5.8,29.37-73.64,46.6-123.89,34.79-9.58-2.25-15.41-6.43-24.72-6.45-18.87,31.36-102.44,38.53-144.88,15.96-8.21-4.36-19.87-18.31-23.97-19.37-18.32-4.72-28.45,4.08-46.23,6.94-62.35,10.01-129.06-20.07-112.89-54.33-67.71,4.75-123.27-29.06-99.65-63.34,3.37-4.89,16.69-13.52,16.51-16.71-.58-9.87-24.35-12.17-36.66-18.57-43.59-22.69-26.42-67.83,34.4-76.86l-.03-2.13c-45.05-25.48-5.84-70.87,56.81-74.55,16.95-.99,32.84,3.68,42.59-5.17,5.3-4.81-.57-6.18.09-10.06,6.75-39.61,87.91-60.22,147.13-34.26,27.76-32.84,112.31-42.01,155.59-12.26,6.51,4.48,11.63,13.03,18.69,14.82,16.24,4.13,24.62-3.43,39.3-6.13,66.03-12.11,133.68,18.41,118.4,54.34Z"/>
  <path class="cls-2" d="M430.11,185.94c11.33-1.1,20.46,5.15,15.51,10.6-1,1.1-3.14,1.66-1.83,3.15.13.15,3.35,1,4.17,1.34,8.31,3.47,6.47,11.31-4.18,12.76,1.22,1.39,2.85,2.7,3.08,4.29.52,3.51-4.91,7.56-11.73,7.98-2.37.15-5.47-.43-7.03.71-1.2.87-.44,1.88-.64,2.91-.93,4.7-11.78,7.46-19.83,5.57-1.53-.36-2.47-1.03-3.96-1.03-3.02,5.02-16.39,6.17-23.19,2.55-1.31-.7-3.18-2.93-3.84-3.1-2.93-.76-4.55.65-7.4,1.11-9.98,1.6-20.65-3.21-18.07-8.69-10.84.76-19.73-4.65-15.95-10.14.54-.78,2.67-2.16,2.64-2.67-.09-1.58-3.9-1.95-5.87-2.97-6.98-3.63-4.23-10.86,5.51-12.3v-.34c-7.21-4.08-.94-11.34,9.09-11.93,2.71-.16,5.26.59,6.82-.83.85-.77-.09-.99.01-1.61,1.08-6.34,14.07-9.64,23.55-5.48,4.44-5.26,17.97-6.72,24.9-1.96,1.04.72,1.86,2.09,2.99,2.37,2.6.66,3.94-.55,6.29-.98,10.57-1.94,21.39,2.95,18.95,8.7Z"/>
</svg>