<?xml version="1.0" encoding="UTF-8"?>
<svg id="flores_02" xmlns="http://www.w3.org/2000/svg" viewBox="0 0 760.93 609.99">
  <defs>
    <style>
      .cls-1 {
        fill: #a73;
      }

      .cls-2 {
        fill: #3cbe00;
      }
    </style>
  </defs>
  <path class="cls-2" d="M760.03,355.15c.3-.07.6-.13.9-.19-5.54-17.92-14.15-36.09-27.86-52.77,11.17-15.96,17.46-33.11,19.08-50.22-.11-.02-.22-.03-.33-.05.12-.98.24-1.97.33-2.95-.11-.02-.22-.03-.33-.05.12-.98.24-1.97.33-2.95-.11-.02-.22-.03-.33-.05.12-.98.24-1.97.33-2.95-.11-.02-.22-.03-.33-.05.12-.98.24-1.97.33-2.95-.11-.02-.22-.03-.33-.05.12-.98.24-1.97.33-2.95-.11-.02-.22-.03-.33-.05.12-.98.24-1.97.33-2.95-.11-.02-.22-.03-.33-.05.12-.98.24-1.97.33-2.95-.11-.02-.22-.03-.33-.05.12-.98.24-1.97.33-2.95-.11-.02-.22-.03-.33-.05.12-.98.24-1.97.33-2.95-.11-.02-.22-.03-.33-.05.12-.98.24-1.97.33-2.95-.11-.02-.22-.03-.33-.05.12-.98.24-1.97.33-2.95-.11-.02-.22-.03-.33-.05.12-.98.24-1.97.33-2.95-.11-.02-.22-.03-.33-.05.12-.98.24-1.97.33-2.95-.11-.02-.22-.03-.33-.05.12-.98.24-1.97.33-2.95-.11-.02-.22-.03-.33-.05.12-.98.24-1.97.33-2.95-.11-.02-.22-.03-.33-.05.12-.98.24-1.97.33-2.95-.11-.02-.22-.03-.33-.05.12-.98.24-1.97.33-2.95-.11-.02-.22-.03-.33-.05.12-.98.24-1.97.33-2.95-.11-.02-.22-.03-.33-.05.12-.98.24-1.97.33-2.95-.11-.02-.22-.03-.33-.05.12-.98.24-1.97.33-2.95-.11-.02-.22-.03-.33-.05.12-.98.24-1.97.33-2.95-.11-.02-.22-.03-.33-.05.12-.98.24-1.97.33-2.95-.11-.02-.22-.03-.33-.05.12-.98.24-1.97.33-2.95-.11-.02-.22-.03-.33-.05.12-.98.24-1.97.33-2.95-.11-.02-.22-.03-.33-.05.12-.98.24-1.97.33-2.95-.11-.02-.22-.03-.33-.05.12-.98.24-1.97.33-2.95-.11-.02-.22-.03-.33-.05.12-.98.24-1.97.33-2.95-.11-.02-.22-.03-.33-.05.12-.98.24-1.97.33-2.95-.11-.02-.22-.03-.33-.05.12-.98.24-1.97.33-2.95-.11-.02-.22-.03-.33-.05.12-.98.24-1.97.33-2.95-.11-.02-.22-.03-.33-.05.12-.98.24-1.97.33-2.95-.11-.02-.22-.03-.33-.05.12-.98.24-1.97.33-2.95-.11-.02-.22-.03-.33-.05.12-.98.24-1.97.33-2.95-.11-.02-.22-.03-.33-.05.12-.98.24-1.97.33-2.95-.11-.02-.22-.03-.33-.05.12-.98.24-1.97.33-2.95-.11-.02-.22-.03-.33-.05.12-.98.24-1.97.33-2.95-.11-.02-.22-.03-.33-.05.12-.98.24-1.97.33-2.95-.11-.02-.22-.03-.33-.05.12-.98.24-1.97.33-2.95-.11-.02-.22-.03-.33-.05.12-.98.24-1.97.33-2.95-.11-.02-.22-.03-.33-.05.12-.98.24-1.97.33-2.95-.11-.02-.22-.03-.33-.05.12-.98.24-1.97.33-2.95-.11-.02-.22-.03-.33-.05.12-.98.24-1.97.33-2.95-.11-.02-.22-.03-.33-.05.12-.98.24-1.97.33-2.95-.11-.02-.22-.03-.33-.05.12-.98.24-1.97.33-2.95-.11-.02-.22-.03-.33-.05.12-.98.24-1.97.33-2.95-.11-.02-.22-.03-.33-.05.12-.98.24-1.97.33-2.95-.11-.02-.22-.03-.33-.05.12-.98.24-1.97.33-2.95-85.1-13.32-181.15-18.18-253.64,13.38,0-.08,0-.16-.01-.24.03-1,.03-2,0-3,.03-1,.03-2,0-3,.03-1,.03-2,0-3,.03-1,.03-2,0-3,.9-29.4-25.31-57.4-61.49-79.6-7.5-4.6-50.06-27.62-57.96-27.51-8.52.12-53.03,25.42-60.58,30.4-34.36,22.69-57.87,48.68-57.06,77.24-.03,1-.03,2,0,3-.03,1-.03,2,0,3-.03,1-.03,2,0,3-.03,1-.03,2,0,3-.03,1-.03,2,0,3,0,.22-.02.43-.03.65-65.04-26.6-142.88-28.1-220.92-17.36-8.69,1.2-38.92,5.12-40.29,9.35-.24.75-.23,1.8-.02,3.07-.22.74-.21,1.76,0,3-.22.74-.21,1.76,0,3-.22.74-.21,1.76,0,3-.22.74-.21,1.76,0,3-.22.74-.21,1.76,0,3-.22.74-.21,1.76,0,3-.22.74-.21,1.76,0,3-.22.74-.21,1.76,0,3-.22.74-.21,1.76,0,3-.22.74-.21,1.76,0,3-.22.74-.21,1.76,0,3-.22.74-.21,1.76,0,3-.22.74-.21,1.76,0,3-.22.74-.21,1.76,0,3-.22.74-.21,1.76,0,3-.22.74-.21,1.76,0,3-.22.74-.21,1.76,0,3-.22.74-.21,1.76,0,3-.22.74-.21,1.76,0,3-.22.74-.21,1.76,0,3-.22.74-.21,1.76,0,3-.22.74-.21,1.76,0,3-.22.74-.21,1.76,0,3-.22.74-.21,1.76,0,3-.22.74-.21,1.76,0,3-.22.74-.21,1.76,0,3-.22.74-.21,1.76,0,3-.22.74-.21,1.76,0,3-.22.74-.21,1.76,0,3-.22.74-.21,1.76,0,3-.22.74-.21,1.76,0,3-.22.74-.21,1.76,0,3-.22.74-.21,1.76,0,3-.22.74-.21,1.76,0,3-.22.74-.21,1.76,0,3-.22.74-.21,1.76,0,3-.22.74-.21,1.76,0,3-.22.74-.21,1.76,0,3-.22.74-.21,1.76,0,3-.22.74-.21,1.76,0,3-.22.74-.21,1.76,0,3-.22.74-.21,1.76,0,3-.22.74-.21,1.76,0,3-.22.74-.21,1.76,0,3-.22.74-.21,1.76,0,3-.22.74-.21,1.76,0,3-1.85,6.16,12.73,31.57,17.38,38.68,2.81,4.29,5.94,8.5,9.37,12.62-10.54,15.26-16.78,31.82-19.95,49.12.19.03.38.06.57.1-.2.97-.39,1.93-.57,2.9.19.03.38.06.57.1-.2.97-.39,1.93-.57,2.9.19.03.38.06.57.1-.2.97-.39,1.93-.57,2.9.19.03.38.06.57.1-.2.97-.39,1.93-.57,2.9.19.03.38.06.57.1-.2.97-.39,1.93-.57,2.9.19.03.38.06.57.1-.2.97-.39,1.93-.57,2.9.19.03.38.06.57.1-.2.97-.39,1.93-.57,2.9.19.03.38.06.57.1-.2.97-.39,1.93-.57,2.9.19.03.38.06.57.1-.2.97-.39,1.93-.57,2.9.19.03.38.06.57.1-.2.97-.39,1.93-.57,2.9.19.03.38.06.57.1-.2.97-.39,1.93-.57,2.9.19.03.38.06.57.1-.2.97-.39,1.93-.57,2.9.19.03.38.06.57.1-.2.97-.39,1.93-.57,2.9.19.03.38.06.57.1-.2.97-.39,1.93-.57,2.9.19.03.38.06.57.1-.2.97-.39,1.93-.57,2.9.19.03.38.06.57.1-.2.97-.39,1.93-.57,2.9.19.03.38.06.57.1-.2.97-.39,1.93-.57,2.9.19.03.38.06.57.1-.2.97-.39,1.93-.57,2.9.19.03.38.06.57.1-.2.97-.39,1.93-.57,2.9.19.03.38.06.57.1-.2.97-.39,1.93-.57,2.9.19.03.38.06.57.1-.2.97-.39,1.93-.57,2.9.19.03.38.06.57.1-.2.97-.39,1.93-.57,2.9.19.03.38.06.57.1-.2.97-.39,1.93-.57,2.9.19.03.38.06.57.1-.2.97-.39,1.93-.57,2.9.19.03.38.06.57.1-.2.97-.39,1.93-.57,2.9.19.03.38.06.57.1-.2.97-.39,1.93-.57,2.9.19.03.38.06.57.1-.2.97-.39,1.93-.57,2.9.19.03.38.06.57.1-.2.97-.39,1.93-.57,2.9.19.03.38.06.57.1-.2.97-.39,1.93-.57,2.9.19.03.38.06.57.1-.2.97-.39,1.93-.57,2.9.19.03.38.06.57.1-.2.97-.39,1.93-.57,2.9.19.03.38.06.57.1-.2.97-.39,1.93-.57,2.9.19.03.38.06.57.1-.2.97-.39,1.93-.57,2.9.19.03.38.06.57.1-.2.97-.39,1.93-.57,2.9.19.03.38.06.57.1-.2.97-.39,1.93-.57,2.9.19.03.38.06.57.1-.2.97-.39,1.93-.57,2.9.19.03.38.06.57.1-.2.97-.39,1.93-.57,2.9.19.03.38.06.57.1-.2.97-.39,1.93-.57,2.9.19.03.38.06.57.1-.2.97-.39,1.93-.57,2.9.19.03.38.06.57.1-.2.97-.39,1.93-.57,2.9.19.03.38.06.57.1-.2.97-.39,1.93-.57,2.9.19.03.38.06.57.1-.2.97-.39,1.93-.57,2.9.19.03.38.06.57.1-.2.97-.39,1.93-.57,2.9.19.03.38.06.57.1-.2.97-.39,1.93-.57,2.9.19.03.38.06.57.1-.2.97-.39,1.93-.57,2.9.19.03.38.06.57.1-.2.97-.39,1.93-.57,2.9.19.03.38.06.57.1-.2.97-.39,1.93-.57,2.9,82.95,14.81,184.92,19.43,255.07-13.14v28.27c0,5.02,12.02,22.08,16.54,27.54,20.6,24.91,59.87,48.18,100.5,64.55,57.63-21.46,117.5-62.15,119.88-100.83.05-.87.03-1.74-.03-2.6,0-.13.03-.26.03-.4.05-.87.03-1.74-.03-2.6,0-.13.03-.26.03-.4.05-.87.03-1.74-.03-2.6,0-.13.03-.26.03-.4.05-.87.03-1.74-.03-2.6,0-.13.03-.26.03-.4.05-.87.03-1.74-.03-2.6,0-.13.03-.26.03-.4.05-.87.03-1.74-.03-2.6,0-.13.03-.26.03-.4.05-.87.03-1.74-.03-2.6,0-.13.03-.26.03-.4.04-.59.03-1.17.01-1.76,75.12,31.4,177.29,28.35,261.95,9.55-.29-.94-.59-1.87-.9-2.81.3-.07.6-.13.9-.19-.29-.94-.59-1.87-.9-2.81.3-.07.6-.13.9-.19-.29-.94-.59-1.87-.9-2.81.3-.07.6-.13.9-.19-.29-.94-.59-1.87-.9-2.81.3-.07.6-.13.9-.19-.29-.94-.59-1.87-.9-2.81.3-.07.6-.13.9-.19-.29-.94-.59-1.87-.9-2.81.3-.07.6-.13.9-.19-.29-.94-.59-1.87-.9-2.81.3-.07.6-.13.9-.19-.29-.94-.59-1.87-.9-2.81.3-.07.6-.13.9-.19-.29-.94-.59-1.87-.9-2.81.3-.07.6-.13.9-.19-.29-.94-.59-1.87-.9-2.81.3-.07.6-.13.9-.19-.29-.94-.59-1.87-.9-2.81.3-.07.6-.13.9-.19-.29-.94-.59-1.87-.9-2.81.3-.07.6-.13.9-.19-.29-.94-.59-1.87-.9-2.81.3-.07.6-.13.9-.19-.29-.94-.59-1.87-.9-2.81.3-.07.6-.13.9-.19-.29-.94-.59-1.87-.9-2.81.3-.07.6-.13.9-.19-.29-.94-.59-1.87-.9-2.81.3-.07.6-.13.9-.19-.29-.94-.59-1.87-.9-2.81.3-.07.6-.13.9-.19-.29-.94-.59-1.87-.9-2.81.3-.07.6-.13.9-.19-.29-.94-.59-1.87-.9-2.81.3-.07.6-.13.9-.19-.29-.94-.59-1.87-.9-2.81.3-.07.6-.13.9-.19-.29-.94-.59-1.87-.9-2.81.3-.07.6-.13.9-.19-.29-.94-.59-1.87-.9-2.81.3-.07.6-.13.9-.19-.29-.94-.59-1.87-.9-2.81.3-.07.6-.13.9-.19-.29-.94-.59-1.87-.9-2.81.3-.07.6-.13.9-.19-.29-.94-.59-1.87-.9-2.81.3-.07.6-.13.9-.19-.29-.94-.59-1.87-.9-2.81.3-.07.6-.13.9-.19-.29-.94-.59-1.87-.9-2.81.3-.07.6-.13.9-.19-.29-.94-.59-1.87-.9-2.81.3-.07.6-.13.9-.19-.29-.94-.59-1.87-.9-2.81.3-.07.6-.13.9-.19-.29-.94-.59-1.87-.9-2.81.3-.07.6-.13.9-.19-.29-.94-.59-1.87-.9-2.81.3-.07.6-.13.9-.19-.29-.94-.59-1.87-.9-2.81.3-.07.6-.13.9-.19-.29-.94-.59-1.87-.9-2.81.3-.07.6-.13.9-.19-.29-.94-.59-1.87-.9-2.81.3-.07.6-.13.9-.19-.29-.94-.59-1.87-.9-2.81.3-.07.6-.13.9-.19-.29-.94-.59-1.87-.9-2.81.3-.07.6-.13.9-.19-.29-.94-.59-1.87-.9-2.81.3-.07.6-.13.9-.19-.29-.94-.59-1.87-.9-2.81.3-.07.6-.13.9-.19-.29-.94-.59-1.87-.9-2.81.3-.07.6-.13.9-.19-.29-.94-.59-1.87-.9-2.81.3-.07.6-.13.9-.19-.29-.94-.59-1.87-.9-2.81.3-.07.6-.13.9-.19-.29-.94-.59-1.87-.9-2.81.3-.07.6-.13.9-.19-.29-.94-.59-1.87-.9-2.81.3-.07.6-.13.9-.19-.29-.94-.59-1.87-.9-2.81.3-.07.6-.13.9-.19-.29-.94-.59-1.87-.9-2.81.3-.07.6-.13.9-.19-.29-.94-.59-1.87-.9-2.81.3-.07.6-.13.9-.19-.29-.94-.59-1.87-.9-2.81Z"/>
  <path class="cls-1" d="M262.04,343.63c-70.16,32.57-172.12,27.95-255.07,13.14,8.8-48.06,41.35-90.46,123.74-114.89,9.23-2.74,20.49-4.3,28.64-6.67,3.15-.91,4.66.09,3.52-3.22-74.38-9.96-121.21-41.09-145.32-77.96C12.88,146.89-1.79,121.33.18,115.28c1.37-4.23,31.59-8.15,40.29-9.35,79.4-10.93,158.59-9.21,224.3,18.74-12.96-35.3,12.63-67.15,53.71-94.27C326.02,25.42,370.54.12,379.06,0c7.9-.11,50.46,22.91,57.96,27.51,41.57,25.51,69.99,58.68,59.23,92.82,72.74-32.66,169.92-27.81,255.91-14.36-5.03,53.16-55.09,106.66-156.74,123.83,15.05,4.53,31.71,7.13,46.87,11.58,75.02,22.02,105.48,66.03,118.64,108.59-85.68,19.03-189.32,21.94-264.68-10.68-2,8.12,3.22,15.85,2.72,23.89-2.39,38.67-62.25,79.36-119.88,100.83-40.63-16.37-79.9-39.64-100.5-64.55-4.52-5.46-16.54-22.52-16.54-27.54v-28.28Z"/>
  <path class="cls-2" d="M361.14,250.21c-11.45,5.32-28.09,4.56-41.62,2.14,1.44-7.84,6.75-14.76,20.19-18.75,1.51-.45,3.34-.7,4.67-1.09.51-.15.76.01.57-.53-12.14-1.62-19.78-6.7-23.71-12.72-.76-1.16-3.16-5.34-2.83-6.32.22-.69,5.16-1.33,6.57-1.53,12.96-1.78,25.88-1.5,36.6,3.06-2.12-5.76,2.06-10.96,8.76-15.38,1.23-.81,8.5-4.94,9.89-4.96,1.29-.02,8.23,3.74,9.46,4.49,6.78,4.16,11.42,9.57,9.67,15.15,11.87-5.33,27.73-4.54,41.76-2.34-.82,8.68-8.99,17.41-25.58,20.21,2.46.74,5.17,1.16,7.65,1.89,12.24,3.59,17.21,10.78,19.36,17.72-13.98,3.11-30.89,3.58-43.19-1.74-.33,1.32.52,2.59.44,3.9-.39,6.31-10.16,12.95-19.56,16.45-6.63-2.67-13.04-6.47-16.4-10.53-.74-.89-2.7-3.68-2.7-4.49v-4.61Z"/>
</svg>