<?xml version="1.0" encoding="UTF-8"?>
<svg id="flores_02" xmlns="http://www.w3.org/2000/svg" viewBox="0 0 843.06 590.43">
  <defs>
    <style>
      .cls-1 {
        fill: #a73;
      }

      .cls-2 {
        fill: #3cbe00;
      }
    </style>
  </defs>
  <path class="cls-2" d="M842.94,233.96c1.23-9.35-9.13-18.87-33.53-25.82,0-.35-.02-.7-.03-1.05.04-1,.04-2,0-3,.04-1,.04-2,0-3,.04-1,.04-2,0-3,.04-1,.04-2,0-3,.04-1,.04-2,0-3,.04-1,.04-2,0-3,.04-1,.04-2,0-3,.04-1,.04-2,0-3,.04-1,.04-2,0-3,.04-1,.04-2,0-3,.04-1,.04-2,0-3,.04-1,.04-2,0-3,.04-1,.04-2,0-3,.04-1,.04-2,0-3,.04-1,.04-2,0-3,.04-1,.04-2,0-3,.04-1,.04-2,0-3,1.72-39.29-64.08-76.06-150.65-66.43,0-.15-.01-.31-.02-.46.05-1.02.05-2.02,0-3,.05-1.02.05-2.02,0-3,.05-1.02.05-2.02,0-3,.05-1.02.05-2.02,0-3,.05-1.02.05-2.02,0-3,.05-1.02.05-2.02,0-3,.05-1.02.05-2.02,0-3,.05-1.02.05-2.02,0-3,1.57-34.34-54.25-45.62-117.3-11.95-28.02-57.21-176.27-65.39-230.03-14.59-17.18-6.69-36.48-15.43-59.34-13.83-34.3,2.41-41.86,19.3-41.33,35.4-.03,1-.03,2,0,3-.03,1-.03,2,0,3-.03,1-.03,2,0,3-.03,1-.03,2,0,3-.03,1-.03,2,0,3,0,.27-.02.54-.02.81-38.45-5.29-77.52-2.93-109.88,9.96-17.7,7.05-47.46,27.46-49.84,39.02-.86,4.17-1.22,8.18-1.11,12.06-.03,1.01-.03,2.01,0,3-.03,1.01-.03,2.01,0,3-.03,1.01-.03,2.01,0,3-.03,1.01-.03,2.01,0,3-.03,1.01-.03,2.01,0,3-.03,1.01-.03,2.01,0,3-.03,1.01-.03,2.01,0,3-.03,1.01-.03,2.01,0,3-.03,1.01-.03,2.01,0,3-.03,1.01-.03,2.01,0,3-.03,1.01-.03,2.01,0,3-.03,1.01-.03,2.01,0,3-.03,1.01-.03,2.01,0,3-.03,1.01-.03,2.01,0,3-.03,1.01-.03,2.01,0,3-.03,1.01-.03,2.01,0,3-.03,1.01-.03,2.01,0,3-.03,1.01-.03,2.01,0,3-.01.41-.01.81-.02,1.21C16.76,198.62-1.52,210.85.12,223.01c-.13,1-.14,2,0,3-.13,1-.14,2,0,3-.13,1-.14,2,0,3-.13,1-.14,2,0,3-.13,1-.14,2,0,3-.13,1-.14,2,0,3-.13,1-.14,2,0,3-.13,1-.14,2,0,3-.13,1-.14,2,0,3-.13,1-.14,2,0,3-.13,1-.14,2,0,3-.13,1-.14,2,0,3-.13,1-.14,2,0,3-.13,1-.14,2,0,3-.13,1-.14,2,0,3-.13,1-.14,2,0,3-.13,1-.14,2,0,3-.13,1-.14,2,0,3-.13,1-.14,2,0,3-.13,1-.14,2,0,3-.13,1-.14,2,0,3-.13,1-.14,2,0,3-.13,1-.14,2,0,3-.13,1-.14,2,0,3-.13,1-.14,2,0,3-.13,1-.14,2,0,3-.13,1-.14,2,0,3-.13,1-.14,2,0,3-.13,1-.14,2,0,3-.13,1-.14,2,0,3-.13,1-.14,2,0,3-.13,1-.14,2,0,3-.13,1-.14,2,0,3-.13,1-.14,2,0,3-.13,1-.14,2,0,3-.13,1-.14,2,0,3-.13,1-.14,2,0,3-.13,1-.14,2,0,3-.13,1-.14,2,0,3-.13,1-.14,2,0,3-.13,1-.14,2,0,3-.13,1-.14,2,0,3-.13,1-.14,2,0,3-.13,1-.14,2,0,3-.13,1-.14,2,0,3-.13,1-.14,2,0,3-1.23,9.33,9.06,18.9,33.2,26.01,0,.41.01.81.03,1.22-.04,1-.04,2,0,3-.04,1-.04,2,0,3-.04,1-.04,2,0,3-.04,1-.04,2,0,3-.04,1-.04,2,0,3-.04,1-.04,2,0,3-.04,1-.04,2,0,3-.04,1-.04,2,0,3-.04,1-.04,2,0,3-.04,1-.04,2,0,3-.04,1-.04,2,0,3-.04,1-.04,2,0,3-.04,1-.04,2,0,3-.04,1-.04,2,0,3-.04,1-.04,2,0,3-.04,1-.04,2,0,3-.04,1-.04,2,0,3-1.74,39.2,64.58,76.01,150.86,66.6-.05,1-.06,2,0,2.99-.05,1.01-.06,2.01,0,3-.05,1.01-.06,2.01,0,3-.05,1.01-.06,2.01,0,3-.05,1.01-.06,2.01,0,3-.05,1.01-.06,2.01,0,3-.05,1.01-.06,2.01,0,3-.05,1.01-.06,2.01,0,3-.05,1.01-.06,2.01,0,3-.53,9.87,3.93,19.2,19.7,25.36,22.88,8.93,50.4,3.42,71.14-4.59,5.06-1.96,22.86-12.78,26.61-11.35,20.22,41.79,110.86,60.18,181.91,39.9,21.79-6.22,33.53-15.43,48.46-25.34,56.85,26.72,102.34,9.96,100.7-20.01.05-.98.06-1.98,0-3,.05-.98.06-1.98,0-3,.05-.98.06-1.98,0-3,.05-.98.06-1.98,0-3,.05-.98.06-1.98,0-3,.04-.69.04-1.4.02-2.11,35.65,3.61,69.23,3.27,101.24-7.3,22.75-7.51,55.4-29.4,58.07-43.39.76-3.98,1.08-7.79.95-11.46.03-1.01.03-2.01,0-3,.03-1.01.03-2.01,0-3,.03-1.01.03-2.01,0-3,.03-1.01.03-2.01,0-3,.03-1.01.03-2.01,0-3,.03-1.01.03-2.01,0-3,.03-1.01.03-2.01,0-3,.03-1.01.03-2.01,0-3,.03-1.01.03-2.01,0-3,.03-1.01.03-2.01,0-3,.03-1.01.03-2.01,0-3,.03-1.01.03-2.01,0-3,.03-1.01.03-2.01,0-3,.03-1.01.03-2.01,0-3,.03-1.01.03-2.01,0-3,.03-1.01.03-2.01,0-3,.03-1.01.03-2.01,0-3,.03-1.01.03-2.01,0-3,0-.17.02-.35.02-.52,33.13-6.5,51.58-18.88,49.91-31.06.13-1,.14-2,0-3,.13-1,.14-2,0-3,.13-1,.14-2,0-3,.13-1,.14-2,0-3,.13-1,.14-2,0-3,.13-1,.14-2,0-3,.13-1,.14-2,0-3,.13-1,.14-2,0-3,.13-1,.14-2,0-3,.13-1,.14-2,0-3,.13-1,.14-2,0-3,.13-1,.14-2,0-3,.13-1,.14-2,0-3,.13-1,.14-2,0-3,.13-1,.14-2,0-3,.13-1,.14-2,0-3,.13-1,.14-2,0-3,.13-1,.14-2,0-3,.13-1,.14-2,0-3,.13-1,.14-2,0-3,.13-1,.14-2,0-3,.13-1,.14-2,0-3,.13-1,.14-2,0-3,.13-1,.14-2,0-3,.13-1,.14-2,0-3,.13-1,.14-2,0-3,.13-1,.14-2,0-3,.13-1,.14-2,0-3,.13-1,.14-2,0-3,.13-1,.14-2,0-3,.13-1,.14-2,0-3,.13-1,.14-2,0-3,.13-1,.14-2,0-3,.13-1,.14-2,0-3,.13-1,.14-2,0-3,.13-1,.14-2,0-3,.13-1,.14-2,0-3,.13-1,.14-2,0-3,.13-1,.14-2,0-3,.13-1,.14-2,0-3,.13-1,.14-2,0-3,.13-1,.14-2,0-3,.13-1,.14-2,0-3,.13-1,.14-2,0-3,.13-1,.14-2,0-3,.13-1,.14-2,0-3Z"/>
  <path class="cls-1" d="M541.42,48.25c76.91-41.07,143.09-15.26,107.43,37.7,126.21-18.92,213.4,60.89,123.96,110.19,110.32,13.52,80.63,61.32-19.29,65.28,30.85,18.41,43.29,36.73,38.54,61.59-2.67,13.98-35.31,35.88-58.07,43.39-33.79,11.16-69.33,10.92-107.2,6.67,23.98,40.05-27.41,69.4-94.76,37.75-14.93,9.91-26.67,19.12-48.46,25.34-71.05,20.28-161.69,1.89-181.91-39.9-3.75-1.43-21.55,9.39-26.61,11.35-20.73,8.01-48.26,13.52-71.14,4.59-31.34-12.24-17.99-37.01-9.68-53.63-125.78,18.67-214.35-61.11-123.97-110.19-109.87-14.17-81.25-61.78,19.29-65.28-31.46-18.6-43.73-37.94-38.58-63.06,2.37-11.56,32.14-31.97,49.84-39.02,33.15-13.2,73.35-15.36,112.7-9.56-5.33-18.42-8-48.35,38.53-51.61,22.86-1.6,42.16,7.14,59.34,13.83,53.76-50.81,202.01-42.62,230.03,14.59Z"/>
  <path class="cls-2" d="M438.96,196.92c11.18-5.97,20.8-2.22,15.62,5.48,18.35-2.75,31.03,8.85,18.02,16.02,16.04,1.97,11.72,8.92-2.8,9.49,4.49,2.68,6.29,5.34,5.6,8.96-.39,2.03-5.13,5.22-8.44,6.31-4.91,1.62-10.08,1.59-15.59.97,3.49,5.82-3.99,10.09-13.78,5.49-2.17,1.44-3.88,2.78-7.05,3.68-10.33,2.95-23.51.27-26.45-5.8-.55-.21-3.13,1.37-3.87,1.65-3.01,1.16-7.02,1.97-10.34.67-4.56-1.78-2.62-5.38-1.41-7.8-18.29,2.71-31.17-8.89-18.02-16.02-15.97-2.06-11.81-8.98,2.8-9.49-4.57-2.7-6.36-5.52-5.61-9.17.34-1.68,4.67-4.65,7.25-5.67,4.82-1.92,10.66-2.23,16.39-1.39-.77-2.68-1.16-7.03,5.6-7.5,3.32-.23,6.13,1.04,8.63,2.01,7.82-7.39,29.37-6.2,33.44,2.12Z"/>
</svg>