<?xml version="1.0" encoding="UTF-8"?>
<svg id="flores_02" xmlns="http://www.w3.org/2000/svg" viewBox="0 0 742.51 570.79">
  <defs>
    <style>
      .cls-1 {
        fill: #a73;
      }

      .cls-2 {
        fill: #3cbe00;
      }
    </style>
  </defs>
  <path class="cls-2" d="M742.46,149.21c.41-8.73-2.97-18-11.07-27.7-44.54-53.34-163.83-39.66-235.85-10.83.01-.81,0-1.63,0-2.44.02-1,.02-2,0-3,.02-1,.02-2,0-3,.02-1,.02-2,0-3,.02-1,.02-2,0-3,.02-1,.02-2,0-3,.02-1,.02-2,0-3,.02-1,.02-2,0-3,1.01-44.99-41.19-88-144-81.6-60.18,3.75-97.92,34.78-103.61,64.37-.44,2.3-.52,4.69-.44,7.12-.04.99-.03,1.99,0,3-.04.99-.03,1.99,0,3-.04.99-.03,1.99,0,3-.04.99-.03,1.99,0,3-.04.99-.03,1.99,0,3-.02.55-.03,1.11-.03,1.67l-56.66-16.92C85.53,56.29,16.4,93.68,18.12,134.6c-.04,1-.04,2,0,3-.04,1-.04,2,0,3-.04,1-.04,2,0,3-.04,1-.04,2,0,3-.04,1-.04,2,0,3-.04,1-.04,2,0,3-.04,1-.04,2,0,3-.04,1-.04,2,0,3-.04,1-.04,2,0,3-.04,1-.04,2,0,3-.04,1-.04,2,0,3-.04,1-.04,2,0,3-.04,1-.04,2,0,3-.04,1-.04,2,0,3-.04,1-.04,2,0,3-.04,1-.04,2,0,3-.04,1-.04,2,0,3-.04,1-.04,2,0,3-.04,1-.04,2,0,3-.04,1-.04,2,0,3-.04,1-.04,2,0,3-.04,1-.04,2,0,3-.04,1-.04,2,0,3-.04,1-.04,2,0,3-.04,1-.04,2,0,3-.04,1-.04,2,0,3-.04,1-.04,2,0,3-.04,1-.04,2,0,3-.04,1-.04,2,0,3-.04,1-.04,2,0,3-.04,1-.04,2,0,3-.04,1-.04,2,0,3-.04,1-.04,2,0,3-.04,1-.04,2,0,3-.04,1-.04,2,0,3-.04,1-.04,2,0,3-.04,1-.04,2,0,3-.04,1-.04,2,0,3-.04,1-.04,2,0,3-.04,1-.04,2,0,3,0,.18-.02.36-.03.54C6.31,264.96-.5,276.04.05,288.18c-.05.99-.05,1.99,0,3-.05.99-.05,1.99,0,3-.05.99-.05,1.99,0,3-.05.99-.05,1.99,0,3-.05.99-.05,1.99,0,3-.05.99-.05,1.99,0,3-.05.99-.05,1.99,0,3-.05.99-.05,1.99,0,3-.05.99-.05,1.99,0,3-.05.99-.05,1.99,0,3-.05.99-.05,1.99,0,3-.05.99-.05,1.99,0,3-.05.99-.05,1.99,0,3-.05.99-.05,1.99,0,3-.05.99-.05,1.99,0,3-.05.99-.05,1.99,0,3-.05.99-.05,1.99,0,3-.05.99-.05,1.99,0,3-.05.99-.05,1.99,0,3-.05.99-.05,1.99,0,3-.05.99-.05,1.99,0,3-.05.99-.05,1.99,0,3-.05.99-.05,1.99,0,3-.05.99-.05,1.99,0,3-.05.99-.05,1.99,0,3-.05.99-.05,1.99,0,3-.05.99-.05,1.99,0,3-.05.99-.05,1.99,0,3-.05.99-.05,1.99,0,3-.05.99-.05,1.99,0,3-.05.99-.05,1.99,0,3-.05.99-.05,1.99,0,3-.05.99-.05,1.99,0,3-.05.99-.05,1.99,0,3-.05.99-.05,1.99,0,3-.05.99-.05,1.99,0,3-.05.99-.05,1.99,0,3-.05.99-.05,1.99,0,3-.05.99-.05,1.99,0,3-.05.99-.05,1.99,0,3-.05.99-.05,1.99,0,3-.05.99-.05,1.99,0,3-.05.99-.05,1.99,0,3-.05.99-.05,1.99,0,3-.05.99-.05,1.99,0,3-.05.99-.05,1.99,0,3-.47,8.56,2.72,17.66,10.46,27.23,35.97,44.53,131.58,45.36,201.67,22.97l34.86-11.18c0,.08,0,.16,0,.23-.02,1-.02,2,0,3-.02,1-.02,2,0,3-.02,1-.02,2,0,3-.02,1-.02,2,0,3-.02,1-.02,2,0,3-.02,1-.02,2,0,3-.02,1-.02,2,0,3-.81,41.8,32.27,84.7,125.77,84.34,90.96-.35,124.1-43.08,123.33-84.48.02-1,.02-2,0-3,.01-.59.02-1.17.02-1.76,63.18,27.14,159.73,36.72,210.23-4.59,14.91-12.2,21.08-24.23,20.47-35.72.05-1,.05-2,0-3,.05-1,.05-2,0-3,.05-1,.05-2,0-3,.05-1,.05-2,0-3,.05-1,.05-2,0-3,.05-1,.05-2,0-3,.05-1,.05-2,0-3,.05-1,.05-2,0-3,.05-1,.05-2,0-3,.05-1,.05-2,0-3,.05-1,.05-2,0-3,.05-1,.05-2,0-3,.05-1,.05-2,0-3,.05-1,.05-2,0-3,.05-1,.05-2,0-3,.05-1,.05-2,0-3,.05-1,.05-2,0-3,.05-1,.05-2,0-3,.05-1,.05-2,0-3,.05-1,.05-2,0-3,.05-1,.05-2,0-3,.05-1,.05-2,0-3,.05-1,.05-2,0-3,.05-1,.05-2,0-3,.05-1,.05-2,0-3,.05-1,.05-2,0-3,.05-1,.05-2,0-3,.05-1,.05-2,0-3,.05-1,.05-2,0-3,.05-1,.05-2,0-3,.05-1,.05-2,0-3,.05-1,.05-2,0-3,.05-1,.05-2,0-3,.05-1,.05-2,0-3,.05-1,.05-2,0-3,.05-1,.05-2,0-3,.05-1,.05-2,0-3,.05-1,.05-2,0-3,.05-1,.05-2,0-3,.05-1,.05-2,0-3,.05-.93.06-1.85.02-2.77,10.34-9.41,16.18-19.9,15.58-31.26.05-.99.05-1.99,0-3,.05-.99.05-1.99,0-3,.05-.99.05-1.99,0-3,.05-.99.05-1.99,0-3,.05-.99.05-1.99,0-3,.05-.99.05-1.99,0-3,.05-.99.05-1.99,0-3,.05-.99.05-1.99,0-3,.05-.99.05-1.99,0-3,.05-.99.05-1.99,0-3,.05-.99.05-1.99,0-3,.05-.99.05-1.99,0-3,.05-.99.05-1.99,0-3,.05-.99.05-1.99,0-3,.05-.99.05-1.99,0-3,.05-.99.05-1.99,0-3,.05-.99.05-1.99,0-3,.05-.99.05-1.99,0-3,.05-.99.05-1.99,0-3,.05-.99.05-1.99,0-3,.05-.99.05-1.99,0-3,.05-.99.05-1.99,0-3,.05-.99.05-1.99,0-3,.05-.99.05-1.99,0-3,.05-.99.05-1.99,0-3,.05-.99.05-1.99,0-3,.05-.99.05-1.99,0-3,.05-.99.05-1.99,0-3,.05-.99.05-1.99,0-3,.05-.99.05-1.99,0-3,.05-.99.05-1.99,0-3,.05-.99.05-1.99,0-3,.05-.99.05-1.99,0-3,.05-.99.05-1.99,0-3,.05-.99.05-1.99,0-3,.05-.99.05-1.99,0-3,.05-.99.05-1.99,0-3,.05-.99.05-1.99,0-3,.05-.99.05-1.99,0-3,.05-.99.05-1.99,0-3,.05-.99.05-1.99,0-3,.05-.99.05-1.99,0-3,.05-.99.05-1.99,0-3,.05-.99.05-1.99,0-3,.05-.99.05-1.99,0-3,.05-.99.05-1.99,0-3Z"/>
  <path class="cls-1" d="M247.93,65.01c5.69-29.59,43.43-60.62,103.61-64.37,122.36-7.62,158.88,54.75,138.86,107.14,71.35-30.24,195.38-45.91,241,8.72,42.15,50.48-43.17,89.25-128.07,101.5,16.4,6.91,36.24,11.08,53.26,17.63,60.29,23.23,94.79,58.54,49.81,95.33-50.57,41.36-147.32,31.7-210.49,4.48,3.52,42.85-28.57,88.99-123.09,89.35-110.48.43-136.6-59.55-122.14-106.74l-38.5,12.35c-70.09,22.39-165.7,21.56-201.67-22.97-41.08-50.86,45.9-88.47,129.96-101.05l-44.42-13.57C-50.51,149.86,25.73,39.59,190.8,71.87l57.13,17.06c1.06-7.72-1.46-16.33,0-23.93Z"/>
  <path class="cls-2" d="M350.66,187.78c.95-4.94,7.25-10.12,17.3-10.75,20.43-1.27,26.53,9.14,23.19,17.89,11.92-5.05,32.63-7.67,40.25,1.46,7.04,8.43-7.21,14.9-21.39,16.95,2.74,1.15,6.05,1.85,8.89,2.94,10.07,3.88,15.83,9.78,8.32,15.92-8.45,6.91-24.6,5.29-35.15.75.59,7.16-4.77,14.86-20.56,14.92-18.45.07-22.81-9.94-20.4-17.83l-6.43,2.06c-11.7,3.74-27.67,3.6-33.68-3.84-6.86-8.49,7.67-14.77,21.7-16.88l-7.42-2.27c-24.47-7.17-11.74-25.59,15.82-20.19l9.54,2.85c.18-1.29-.24-2.73,0-4Z"/>
</svg>