<?xml version="1.0" encoding="UTF-8"?>
<svg id="flores_02" xmlns="http://www.w3.org/2000/svg" viewBox="0 0 750.84 541.38">
  <defs>
    <style>
      .cls-1 {
        fill: #a73;
      }

      .cls-2 {
        fill: #3cbe00;
      }
    </style>
  </defs>
  <path class="cls-2" d="M750.8,204.7c1.05-25.23-22.65-51-69.94-65.38,0-.43,0-.86-.02-1.29.04-1,.04-2,0-3,.04-1,.04-2,0-3,.04-1,.04-2,0-3,.04-1,.04-2,0-3,.04-1,.04-2,0-3,.04-1,.04-2,0-3,.04-1,.04-2,0-3,.04-1,.04-2,0-3,1.8-47.46-88.85-85.04-182.37-68.34-49.08-54.21-199.04-54.49-245.17.64-57.94-10.98-119.24-1.33-156.45,24.19-19.71,13.52-26.82,28.43-26.29,43.98-.03,1-.03,2,0,3-.03,1-.03,2,0,3-.03,1-.03,2,0,3-.03,1-.03,2,0,3-.03,1-.03,2,0,3-.03,1-.03,2,0,3-.03,1-.03,2,0,3-.03,1-.03,2,0,3-.02.69-.03,1.37-.02,2.06C22.27,153.58-.81,178.41.04,203.34c-.04,1-.03,2,0,3-.04,1-.03,2,0,3-.04,1-.03,2,0,3-.04,1-.03,2,0,3-.04,1-.03,2,0,3-.04,1-.03,2,0,3-.04,1-.03,2,0,3-.04,1-.03,2,0,3-.04,1-.03,2,0,3-.04,1-.03,2,0,3-.04,1-.03,2,0,3-.04,1-.03,2,0,3-.04,1-.03,2,0,3-.04,1-.03,2,0,3-.04,1-.03,2,0,3-.04,1-.03,2,0,3-.04,1-.03,2,0,3-.04,1-.03,2,0,3-.04,1-.03,2,0,3-.04,1-.03,2,0,3-.04,1-.03,2,0,3-.04,1-.03,2,0,3-.04,1-.03,2,0,3-.04,1-.03,2,0,3-.04,1-.03,2,0,3-.04,1-.03,2,0,3-.04,1-.03,2,0,3-.04,1-.03,2,0,3-.04,1-.03,2,0,3-.04,1-.03,2,0,3-.04,1-.03,2,0,3-.04,1-.03,2,0,3-.04,1-.03,2,0,3-.04,1-.03,2,0,3-.04,1-.03,2,0,3-.04,1-.03,2,0,3-.04,1-.03,2,0,3-.04,1-.03,2,0,3-.04,1-.03,2,0,3-.04,1-.03,2,0,3-.04,1-.03,2,0,3-.04,1-.03,2,0,3-.04,1-.03,2,0,3-.04,1-.03,2,0,3-.04,1-.03,2,0,3-.04,1-.03,2,0,3-1.09,25.31,22.6,51.19,69.7,65.34,0,.03,0,.07,0,.1-.04,1-.04,2,0,3-.04,1-.04,2,0,3-.04,1-.04,2,0,3-.04,1-.04,2,0,3-.04,1-.04,2,0,3-.04,1-.04,2,0,3-.04,1-.04,2,0,3-.04,1-.04,2,0,3-1.91,48.22,85.86,85.65,181.88,69.91,47.89,47.23,163.73,55.42,230.39,13.59,4.92-3.09,12.93-12.81,18.49-13.53,93.73,15.76,182.37-22.01,180.3-69.26.04-1,.04-2,0-3,.04-1,.04-2,0-3,.04-1,.04-2,0-3,.04-1,.04-2,0-3,.04-1,.04-2,0-3,.04-1,.04-2,0-3,.04-1,.04-2,0-3,.04-1,.04-2,0-3,.02-.64.02-1.29.01-1.94,47.92-13.31,70.88-38.04,69.99-62.86.04-1,.04-2,0-3,.04-1,.04-2,0-3,.04-1,.04-2,0-3,.04-1,.04-2,0-3,.04-1,.04-2,0-3,.04-1,.04-2,0-3,.04-1,.04-2,0-3,.04-1,.04-2,0-3,.04-1,.04-2,0-3,.04-1,.04-2,0-3,.04-1,.04-2,0-3,.04-1,.04-2,0-3,.04-1,.04-2,0-3,.04-1,.04-2,0-3,.04-1,.04-2,0-3,.04-1,.04-2,0-3,.04-1,.04-2,0-3,.04-1,.04-2,0-3,.04-1,.04-2,0-3,.04-1,.04-2,0-3,.04-1,.04-2,0-3,.04-1,.04-2,0-3,.04-1,.04-2,0-3,.04-1,.04-2,0-3,.04-1,.04-2,0-3,.04-1,.04-2,0-3,.04-1,.04-2,0-3,.04-1,.04-2,0-3,.04-1,.04-2,0-3,.04-1,.04-2,0-3,.04-1,.04-2,0-3,.04-1,.04-2,0-3,.04-1,.04-2,0-3,.04-1,.04-2,0-3,.04-1,.04-2,0-3,.04-1,.04-2,0-3,.04-1,.04-2,0-3,.04-1,.04-2,0-3,.04-1,.04-2,0-3,.04-1,.04-2,0-3,.04-1,.04-2,0-3,.04-1,.04-2,0-3,.04-1,.04-2,0-3,.04-1,.04-2,0-3,.04-1,.04-2,0-3,.04-1,.04-2,0-3Z"/>
  <path class="cls-1" d="M672.15,261.78c39.54,57.2-62.62,111.31-171.65,92.98-5.55.72-13.57,10.44-18.49,13.53-66.65,41.83-182.5,33.64-230.39-13.59-110.31,18.08-209.75-34-174.82-92.01-100.51-26.41-104.27-103.89-.03-128.72-10.74-24.28-9.8-47.96,20.07-68.45,37.21-25.52,98.52-35.17,156.45-24.19,46.13-55.13,196.09-54.85,245.17-.64,108.25-19.33,212.68,34.07,174.3,91.33,102.63,26.89,105.76,104.8-.62,129.76Z"/>
  <path class="cls-2" d="M424.74,208.34c6.57,9.51-10.41,18.5-28.53,15.45-.92.12-2.26,1.74-3.07,2.25-11.08,6.95-30.33,5.59-38.29-2.26-18.33,3-34.86-5.65-29.05-15.29-16.7-4.39-17.33-17.27,0-21.39-1.78-4.03-1.63-7.97,3.34-11.38,6.18-4.24,16.37-5.85,26-4.02,7.67-9.16,32.59-9.12,40.75-.11,17.99-3.21,35.35,5.66,28.97,15.18,17.06,4.47,17.58,17.42-.1,21.57Z"/>
</svg>