<?xml version="1.0" encoding="UTF-8"?>
<svg id="flores_02" xmlns="http://www.w3.org/2000/svg" viewBox="0 0 810.36 572.61">
  <defs>
    <style>
      .cls-1 {
        fill: #a73;
      }

      .cls-2 {
        fill: #3cbe00;
      }
    </style>
  </defs>
  <path class="cls-2" d="M810.27,219.21c.21-1.9.03-3.9-.6-6-3.12-10.4-22.94-17.37-47.91-21.94.02-.66,0-1.31-.07-1.95.11-1.02.12-2.02,0-3,.11-1.02.12-2.02,0-3,.11-1.02.12-2.02,0-3,.11-1.02.12-2.02,0-3,.11-1.02.12-2.02,0-3,.11-1.02.12-2.02,0-3,.11-1.02.12-2.02,0-3,.11-1.02.12-2.02,0-3,.11-1.02.12-2.02,0-3,.11-1.02.12-2.02,0-3,.11-1.02.12-2.02,0-3,.11-1.02.12-2.02,0-3,.11-1.02.12-2.02,0-3,.11-1.02.12-2.02,0-3,.11-1.02.12-2.02,0-3,.11-1.02.12-2.02,0-3,.11-1.02.12-2.02,0-3,.11-1.02.12-2.02,0-3,.11-1.02.12-2.02,0-3,.11-1.02.12-2.02,0-3,.11-1.02.12-2.02,0-3,.11-1.02.12-2.02,0-3,1.75-16.38-25.42-27.78-87.39-20.7-15.34,1.75-29.85,4.99-44.05,8.62,0-.65,0-1.28-.04-1.92.05-1.02.05-2.02,0-3,.05-1.02.05-2.02,0-3,.05-1.02.05-2.02,0-3,.05-1.02.05-2.02,0-3,.05-1.02.05-2.02,0-3,.05-1.02.05-2.02,0-3,.05-1.02.05-2.02,0-3,.05-1.02.05-2.02,0-3,.05-1.02.05-2.02,0-3,.05-1.02.05-2.02,0-3,.05-1.02.05-2.02,0-3,.05-1.02.05-2.02,0-3,.05-1.02.05-2.02,0-3,.05-1.02.05-2.02,0-3,.05-1.02.05-2.02,0-3,.05-1.02.05-2.02,0-3,.05-1.02.05-2.02,0-3,.65-13.42-7.47-24.2-31.74-26.85-53.42-5.82-101.11,36.11-126.86,55.75,0-.21,0-.43,0-.64.02-.97.02-1.97,0-3,.02-.97.02-1.97,0-3,.55-26.28-13.7-78.63-70.58-75.45-54.76,3.06-61.24,59.43-62.31,81.1-25.67-19.39-79.53-66.73-134.67-52.77-18.07,4.58-23.34,14.74-22.78,25.69-.05.99-.05,1.99,0,3-.05.99-.05,1.99,0,3-.05.99-.05,1.99,0,3-.05.99-.05,1.99,0,3-.05.99-.05,1.99,0,3-.05.99-.05,1.99,0,3-.05.99-.05,1.99,0,3-.05.99-.05,1.99,0,3-.05.99-.05,1.99,0,3-.05.99-.05,1.99,0,3-.05.99-.05,1.99,0,3-.05.99-.05,1.99,0,3-.05.99-.05,1.99,0,3-.05.99-.05,1.99,0,3-.05.99-.05,1.99,0,3-.05.99-.05,1.99,0,3-.05.99-.05,1.99,0,3-.02.4-.03.79-.04,1.19-42.53-9.82-97.68-17.9-121.92-3.26-7.97,4.81-10.85,10.11-10.19,15.55-.13.99-.12,1.99,0,3-.13.99-.12,1.99,0,3-.13.99-.12,1.99,0,3-.13.99-.12,1.99,0,3-.13.99-.12,1.99,0,3-.13.99-.12,1.99,0,3-.13.99-.12,1.99,0,3-.13.99-.12,1.99,0,3-.13.99-.12,1.99,0,3-.13.99-.12,1.99,0,3-.13.99-.12,1.99,0,3-.13.99-.12,1.99,0,3-.13.99-.12,1.99,0,3-.13.99-.12,1.99,0,3-.13.99-.12,1.99,0,3-.13.99-.12,1.99,0,3-.13.99-.12,1.99,0,3-.13.99-.12,1.99,0,3-.13.99-.12,1.99,0,3-.13.99-.12,1.99,0,3-.13.99-.12,1.99,0,3-.13.99-.12,1.99,0,3-.08.61-.1,1.23-.08,1.85C22.11,196.63,1.16,204.8.05,217.67c-.07.87-.04,1.71.07,2.54-.02.15-.05.31-.07.46-.07.87-.04,1.71.07,2.54-.02.15-.05.31-.07.46-.07.87-.04,1.71.07,2.54-.02.15-.05.31-.07.46-.07.87-.04,1.71.07,2.54-.02.15-.05.31-.07.46-.07.87-.04,1.71.07,2.54-.02.15-.05.31-.07.46-.07.87-.04,1.71.07,2.54-.02.15-.05.31-.07.46-.07.87-.04,1.71.07,2.54-.02.15-.05.31-.07.46-.07.87-.04,1.71.07,2.54-.02.15-.05.31-.07.46-.07.87-.04,1.71.07,2.54-.02.15-.05.31-.07.46-.07.87-.04,1.71.07,2.54-.02.15-.05.31-.07.46-.07.87-.04,1.71.07,2.54-.02.15-.05.31-.07.46-.07.87-.04,1.71.07,2.54-.02.15-.05.31-.07.46-.07.87-.04,1.71.07,2.54-.02.15-.05.31-.07.46-.07.87-.04,1.71.07,2.54-.02.15-.05.31-.07.46-.07.87-.04,1.71.07,2.54-.02.15-.05.31-.07.46-.07.87-.04,1.71.07,2.54-.02.15-.05.31-.07.46-.07.87-.04,1.71.07,2.54-.02.15-.05.31-.07.46-.07.87-.04,1.71.07,2.54-.02.15-.05.31-.07.46-.07.87-.04,1.71.07,2.54-.02.15-.05.31-.07.46-.07.87-.04,1.71.07,2.54-.02.15-.05.31-.07.46-.07.87-.04,1.71.07,2.54-.02.15-.05.31-.07.46-.07.87-.04,1.71.07,2.54-.02.15-.05.31-.07.46-.07.87-.04,1.71.07,2.54-.02.15-.05.31-.07.46-.07.87-.04,1.71.07,2.54-.02.15-.05.31-.07.46-.07.87-.04,1.71.07,2.54-.02.15-.05.31-.07.46-.07.87-.04,1.71.07,2.54-.02.15-.05.31-.07.46-.07.87-.04,1.71.07,2.54-.02.15-.05.31-.07.46-.07.87-.04,1.71.07,2.54-.02.15-.05.31-.07.46-.07.87-.04,1.71.07,2.54-.02.15-.05.31-.07.46-.07.87-.04,1.71.07,2.54-.02.15-.05.31-.07.46-.07.87-.04,1.71.07,2.54-.02.15-.05.31-.07.46-.07.87-.04,1.71.07,2.54-.02.15-.05.31-.07.46-.07.87-.04,1.71.07,2.54-.02.15-.05.31-.07.46-.07.87-.04,1.71.07,2.54-.02.15-.05.31-.07.46-.07.87-.04,1.71.07,2.54-.02.15-.05.31-.07.46-.07.87-.04,1.71.07,2.54-.02.15-.05.31-.07.46-.07.87-.04,1.71.07,2.54-.02.15-.05.31-.07.46-.07.87-.04,1.71.07,2.54-.02.15-.05.31-.07.46-.07.87-.04,1.71.07,2.54-.02.15-.05.31-.07.46-.07.87-.04,1.71.07,2.54-.02.15-.05.31-.07.46-.07.87-.04,1.71.07,2.54-.02.15-.05.31-.07.46-.07.87-.04,1.71.07,2.54-.02.15-.05.31-.07.46-.07.87-.04,1.71.07,2.54-.02.15-.05.31-.07.46-.07.87-.04,1.71.07,2.54-.02.15-.05.31-.07.46-.07.87-.04,1.71.07,2.54-.02.15-.05.31-.07.46-.07.87-.04,1.71.07,2.54-.02.15-.05.31-.07.46-.07.87-.04,1.71.07,2.54-.02.15-.05.31-.07.46-1.17,13.55,20.59,22.29,48.95,27.72-.03.68,0,1.35.09,2.02-.13,1.01-.13,2.01,0,3-.13,1.01-.13,2.01,0,3-.13,1.01-.13,2.01,0,3-.13,1.01-.13,2.01,0,3-.13,1.01-.13,2.01,0,3-.13,1.01-.13,2.01,0,3-.13,1.01-.13,2.01,0,3-.13,1.01-.13,2.01,0,3-.13,1.01-.13,2.01,0,3-.13,1.01-.13,2.01,0,3-.13,1.01-.13,2.01,0,3-.13,1.01-.13,2.01,0,3-.13,1.01-.13,2.01,0,3-.13,1.01-.13,2.01,0,3-.13,1.01-.13,2.01,0,3-.13,1.01-.13,2.01,0,3-.13,1.01-.13,2.01,0,3-.13,1.01-.13,2.01,0,3-.13,1.01-.13,2.01,0,3-.13,1.01-.13,2.01,0,3-.13,1.01-.13,2.01,0,3-.13,1.01-.13,2.01,0,3-.79,6.12,3.02,12.06,14.03,17.23,25.85,12.13,77.35,4.52,117.87-5.07-.03.82-.03,1.64,0,2.46-.05,1-.04,2,0,3-.05,1-.04,2,0,3-.05,1-.04,2,0,3-.05,1-.04,2,0,3-.05,1-.04,2,0,3-.05,1-.04,2,0,3-.05,1-.04,2,0,3-.05,1-.04,2,0,3-.05,1-.04,2,0,3-.05,1-.04,2,0,3-.05,1-.04,2,0,3-.05,1-.04,2,0,3-.05,1-.04,2,0,3-.05,1-.04,2,0,3-.05,1-.04,2,0,3-.05,1-.04,2,0,3-.17,3.15.12,6.32.96,9.52,2.52,9.67,14.97,18.52,34.12,19.73,35.47,2.23,57.48-11.25,80.01-23.21l42.64-31.91c.5,23.35,8.89,88.42,77.92,80.85,42.59-4.67,55.58-51.2,55.02-75.26.02-1.03.02-2.03,0-3,.02-1.03.02-2.03,0-3,0-.19,0-.38.01-.57l55.66,40.18c41.62,22.87,105.14,23.63,103.35-13.51.05-.97.05-1.97,0-3,.05-.97.05-1.97,0-3,.05-.97.05-1.97,0-3,.05-.97.05-1.97,0-3,.05-.97.05-1.97,0-3,.05-.97.05-1.97,0-3,.05-.97.05-1.97,0-3,.05-.97.05-1.97,0-3,.05-.97.05-1.97,0-3,.05-.97.05-1.97,0-3,.05-.97.05-1.97,0-3,.05-.97.05-1.97,0-3,.05-.97.05-1.97,0-3,.05-.97.05-1.97,0-3,.05-.97.05-1.97,0-3,.05-.97.05-1.97,0-3,.04-.83.06-1.68.03-2.55,33.15,8.09,69.36,15.51,101.94,9.59,20.72-3.77,30.08-11.89,28.99-21.69.11-.98.11-1.98,0-3,.11-.98.11-1.98,0-3,.11-.98.11-1.98,0-3,.11-.98.11-1.98,0-3,.11-.98.11-1.98,0-3,.11-.98.11-1.98,0-3,.11-.98.11-1.98,0-3,.11-.98.11-1.98,0-3,.11-.98.11-1.98,0-3,.11-.98.11-1.98,0-3,.11-.98.11-1.98,0-3,.11-.98.11-1.98,0-3,.11-.98.11-1.98,0-3,.11-.98.11-1.98,0-3,.11-.98.11-1.98,0-3,.11-.98.11-1.98,0-3,.11-.98.11-1.98,0-3,.11-.98.11-1.98,0-3,.11-.98.11-1.98,0-3,.11-.98.11-1.98,0-3,.11-.98.11-1.98,0-3,.11-.98.11-1.98,0-3,.06-.5.08-1.01.08-1.52,28.48-5.44,50.14-14.55,48.54-29.47.11-.97.11-1.97,0-3,.11-.97.11-1.97,0-3,.11-.97.11-1.97,0-3,.11-.97.11-1.97,0-3,.11-.97.11-1.97,0-3,.11-.97.11-1.97,0-3,.11-.97.11-1.97,0-3,.11-.97.11-1.97,0-3,.11-.97.11-1.97,0-3,.11-.97.11-1.97,0-3,.11-.97.11-1.97,0-3,.11-.97.11-1.97,0-3,.11-.97.11-1.97,0-3,.11-.97.11-1.97,0-3,.11-.97.11-1.97,0-3,.11-.97.11-1.97,0-3,.11-.97.11-1.97,0-3,.11-.97.11-1.97,0-3,.11-.97.11-1.97,0-3,.11-.97.11-1.97,0-3,.11-.97.11-1.97,0-3,.11-.97.11-1.97,0-3,.11-.97.11-1.97,0-3,.11-.97.11-1.97,0-3,.11-.97.11-1.97,0-3,.11-.97.11-1.97,0-3,.11-.97.11-1.97,0-3,.11-.97.11-1.97,0-3,.11-.97.11-1.97,0-3,.11-.97.11-1.97,0-3,.11-.97.11-1.97,0-3,.11-.97.11-1.97,0-3,.11-.97.11-1.97,0-3,.11-.97.11-1.97,0-3,.11-.97.11-1.97,0-3,.11-.97.11-1.97,0-3,.11-.97.11-1.97,0-3,.11-.97.11-1.97,0-3,.11-.97.11-1.97,0-3,.11-.97.11-1.97,0-3,.11-.97.11-1.97,0-3,.11-.97.11-1.97,0-3,.11-.97.11-1.97,0-3,.11-.97.11-1.97,0-3,.11-.97.11-1.97,0-3,.11-.97.11-1.97,0-3Z"/>
  <path class="cls-1" d="M471.02,82.69c25.6-19.45,73.63-62.07,127.46-56.21,65.52,7.14,13.44,73.65-11.77,91,28.75-6.61,56.44-16.29,87.6-19.85,106-12.11,110.23,29.84,41.92,58.31l-60.63,22.44c38.35-.55,146.41,4.32,154.08,29.83,10.88,36.21-107.98,40.76-154.09,39.8,35.43,14.32,86.49,27.57,102.45,51.19,9.23,13.66,1.43,25.82-25.37,30.69-46.84,8.52-101.23-10.56-143.18-19.54,15.76,17.91,38.19,37.27,40.94,57.45,5.49,40.23-60.35,40.04-103.08,16.56l-56.32-40.66c3.71,20.35-7.1,77.13-54.37,82.3-69.03,7.56-77.43-57.5-77.92-80.85l-42.64,31.91c-22.53,11.96-44.54,25.44-80.01,23.21-19.16-1.21-31.6-10.06-34.12-19.73-6.68-25.6,21.4-49.56,41.06-71.65-35.58,11.61-123.35,33.89-159.89,16.74-37.26-17.48,7.91-43.84,34.65-55.85,18.39-8.26,40.27-13.94,59.15-21.78C115.64,249.54-2.65,243.8.05,212.67c2.62-30.26,114.9-34.6,156.86-34.3l-39.43-13.3c-31.57-10.97-92.78-41.07-58.17-61.98,33.81-20.42,127.73,3.36,163.7,14.4-9.65-11.04-21.75-21.47-29.58-32.99-10.52-15.48-25.45-46.89,10.62-56.03,55.14-13.96,109,33.38,134.67,52.77,1.07-21.67,7.55-78.04,62.31-81.1,62.63-3.51,73.58,60.34,69.99,82.55Z"/>
  <path class="cls-2" d="M415.24,193.35c3.91-2.97,11.25-9.48,19.47-8.59,10.01,1.09,2.05,11.25-1.8,13.9,4.39-1.01,8.62-2.49,13.38-3.03,16.19-1.85,16.84,4.56,6.4,8.91l-9.26,3.43c5.86-.08,22.37.66,23.54,4.56,1.66,5.53-16.5,6.23-23.54,6.08,5.41,2.19,13.21,4.21,15.65,7.82,1.41,2.09.22,3.94-3.88,4.69-7.16,1.3-15.46-1.61-21.87-2.98,2.41,2.74,5.83,5.69,6.25,8.78.84,6.15-9.22,6.12-15.75,2.53l-8.6-6.21c.57,3.11-1.08,11.78-8.31,12.57-10.55,1.16-11.83-8.78-11.9-12.35l-6.51,4.88c-3.44,1.83-6.8,3.89-12.22,3.55-2.93-.18-4.83-1.54-5.21-3.01-1.02-3.91,3.27-7.57,6.27-10.95-5.43,1.77-18.84,5.18-24.43,2.56-5.69-2.67,1.21-6.7,5.29-8.53,2.81-1.26,6.15-2.13,9.04-3.33-6.3.23-24.38-.64-23.96-5.4s17.55-5.29,23.96-5.24l-6.02-2.03c-4.82-1.68-14.17-6.27-8.89-9.47s19.51.51,25.01,2.2c-1.47-1.69-3.32-3.28-4.52-5.04-1.61-2.36-3.89-7.16,1.62-8.56,8.42-2.13,16.65,5.1,20.57,8.06.16-3.31,1.15-11.92,9.52-12.39,9.57-.54,11.24,9.22,10.69,12.61Z"/>
</svg>