<?xml version="1.0" encoding="UTF-8"?>
<svg id="flores_02" xmlns="http://www.w3.org/2000/svg" viewBox="0 0 770.92 597.51">
  <defs>
    <style>
      .cls-1 {
        fill: #a73;
      }

      .cls-2 {
        fill: #3cbe00;
      }
    </style>
  </defs>
  <path class="cls-2" d="M770.87,146.7c1.43-25.99-34.25-51.59-86.15-53.98-9.1-.42-25.64,1.52-29.97,1.09-5.39-.54-12.59-8.26-22.94-9.5-37.1-4.45-79.16,13.92-110.6,32.94,0-.26,0-.51-.02-.77.04-1.01.04-2.01,0-3,.04-1.01.04-2.01,0-3,.04-1.01.04-2.01,0-3,.04-1.01.04-2.01,0-3,.04-1.01.04-2.01,0-3,.04-1.01.04-2.01,0-3,.04-1.01.04-2.01,0-3,.04-1.01.04-2.01,0-3,.04-1.01.04-2.01,0-3,.04-1.01.04-2.01,0-3,.04-1.01.04-2.01,0-3,.04-1.01.04-2.01,0-3,.04-1.01.04-2.01,0-3,.04-1.01.04-2.01,0-3,.04-1.01.04-2.01,0-3,.49-12.34-5.04-22.85-21.47-27.86-6.23-1.9-21.51-2.94-22.49-3.39-.84-.38-5.22-8.3-8.25-10.88C433.62-.73,347.5-3.68,307.48,24.65c-4.48,3.17-12.81,13.97-15.38,15.11-7.22,3.2-21.11,1.66-31.75,9.39-8.29,6.02-11.33,14.04-10.94,23.01-.05.99-.04,1.99,0,3-.05.99-.04,1.99,0,3-.05.99-.04,1.99,0,3-.05.99-.04,1.99,0,3-.05.99-.04,1.99,0,3-.05.99-.04,1.99,0,3-.05.99-.04,1.99,0,3-.05.99-.04,1.99,0,3-.05.99-.04,1.99,0,3-.05.99-.04,1.99,0,3-.05.99-.04,1.99,0,3-.05.99-.04,1.99,0,3-.05.99-.04,1.99,0,3-.05.99-.04,1.99,0,3-.04.83-.04,1.66-.02,2.5-27.91-17.23-61.51-33.38-93.75-34.14-25.29-.59-27.74,8.43-36.12,9.96-8.68,1.58-30.72-.32-42.92.61C30.22,96.61-.33,122.34.97,146.4c-.05,1-.05,2,0,3-.05,1-.05,2,0,3-.05,1-.05,2,0,3-.05,1-.05,2,0,3-.05,1-.05,2,0,3-.05,1-.05,2,0,3-.05,1-.05,2,0,3-.05,1-.05,2,0,3-.05,1-.05,2,0,3-.05,1-.05,2,0,3-.05,1-.05,2,0,3-.05,1-.05,2,0,3-.05,1-.05,2,0,3-.05,1-.05,2,0,3-.05,1-.05,2,0,3-.05,1-.05,2,0,3-.05,1-.05,2,0,3-.05,1-.05,2,0,3-.05,1-.05,2,0,3-.05,1-.05,2,0,3-.05,1-.05,2,0,3-.05,1-.05,2,0,3-.05,1-.05,2,0,3-.05,1-.05,2,0,3-.05,1-.05,2,0,3-.05,1-.05,2,0,3-.05,1-.05,2,0,3-.05,1-.05,2,0,3-.05,1-.05,2,0,3-.05,1-.05,2,0,3-.05,1-.05,2,0,3-.05,1-.05,2,0,3-.05,1-.05,2,0,3-.05,1-.05,2,0,3-.05,1-.05,2,0,3-.05,1-.05,2,0,3-.05,1-.05,2,0,3-.05,1-.05,2,0,3-.05,1-.05,2,0,3-.05,1-.05,2,0,3-.05,1-.05,2,0,3-.05,1-.05,2,0,3-.05,1-.05,2,0,3-.05,1-.05,2,0,3-.05,1-.05,2,0,3-.05,1-.05,2,0,3-.29,5.36.95,10.68,3.9,15.71-3.6,5.54-5.13,11.39-4.81,17.26-.05,1-.05,2,0,3-.05,1-.05,2,0,3-.05,1-.05,2,0,3-.05,1-.05,2,0,3-.05,1-.05,2,0,3-.05,1-.05,2,0,3-.05,1-.05,2,0,3-.05,1-.05,2,0,3-.05,1-.05,2,0,3-.05,1-.05,2,0,3-.05,1-.05,2,0,3-.05,1-.05,2,0,3-.05,1-.05,2,0,3-.05,1-.05,2,0,3-.05,1-.05,2,0,3-.05,1-.05,2,0,3-.05,1-.05,2,0,3-.05,1-.05,2,0,3-.05,1-.05,2,0,3-.05,1-.05,2,0,3-.05,1-.05,2,0,3-.05,1-.05,2,0,3-.05,1-.05,2,0,3-.05,1-.05,2,0,3-.05,1-.05,2,0,3-.05,1-.05,2,0,3-.05,1-.05,2,0,3-.05,1-.05,2,0,3-.05,1-.05,2,0,3-.05,1-.05,2,0,3-.05,1-.05,2,0,3-.05,1-.05,2,0,3-.05,1-.05,2,0,3-.05,1-.05,2,0,3-.05,1-.05,2,0,3-.05,1-.05,2,0,3-.05,1-.05,2,0,3-.05,1-.05,2,0,3-.05,1-.05,2,0,3-.05,1-.05,2,0,3-.05,1-.05,2,0,3-.05,1-.05,2,0,3-.05,1-.05,2,0,3-.05,1-.05,2,0,3-.05,1-.05,2,0,3-.05,1-.05,2,0,3-1.34,24.69,30.85,50.41,78.81,53.72,12.08.83,30.54-1.17,40.53.1,1.92.24,6,5.28,11.97,7.08,35.74,10.8,86.64-12.75,109.86-25.89,2.89-1.64,5.78-3.34,8.65-5.1,0,.19,0,.38.02.57-.04,1.01-.04,2.01,0,3-.04,1.01-.04,2.01,0,3-.04,1.01-.04,2.01,0,3-.04,1.01-.04,2.01,0,3-.04,1.01-.04,2.01,0,3-.04,1.01-.04,2.01,0,3-.04,1.01-.04,2.01,0,3-.04,1.01-.04,2.01,0,3-.04,1.01-.04,2.01,0,3-.04,1.01-.04,2.01,0,3-.04,1.01-.04,2.01,0,3-.04,1.01-.04,2.01,0,3-.04,1.01-.04,2.01,0,3-.04,1.01-.04,2.01,0,3-.04,1.01-.04,2.01,0,3-.42,10.37,3.35,19.71,14.7,25.49,9.48,4.82,21.59,3.53,27.55,5.8,1.32.5,10.85,11.9,15.4,15.09,37.14,26.04,116.05,27.51,153.8,1.45,5.7-3.94,13.17-14.05,16.78-15.82,7.3-3.58,21.07-1.07,32.86-10.25,8.02-6.25,10.98-14.2,10.57-22.99.05-.99.05-1.99,0-3,.05-.99.05-1.99,0-3,.05-.99.05-1.99,0-3,.05-.99.05-1.99,0-3,.05-.99.05-1.99,0-3,.05-.99.05-1.99,0-3,.05-.99.05-1.99,0-3,.05-.99.05-1.99,0-3,.05-.99.05-1.99,0-3,.05-.99.05-1.99,0-3,.05-.99.05-1.99,0-3,.05-.99.05-1.99,0-3,.05-.99.05-1.99,0-3,.05-.99.05-1.99,0-3,.02-.44.03-.88.04-1.32,16.11,10.26,33.95,19.58,55.23,26.05,23.52,7.15,43.6,10.95,67.7,1.79,2.85-1.08,3.88-4.15,7.63-4.8,4.32-.75,14.78,1.49,21.56,1.44,55.49-.35,98.51-26.34,96.9-53.99.06-1,.06-2,0-3,.06-1,.06-2,0-3,.06-1,.06-2,0-3,.06-1,.06-2,0-3,.06-1,.06-2,0-3,.06-1,.06-2,0-3,.06-1,.06-2,0-3,.06-1,.06-2,0-3,.06-1,.06-2,0-3,.06-1,.06-2,0-3,.06-1,.06-2,0-3,.06-1,.06-2,0-3,.06-1,.06-2,0-3,.06-1,.06-2,0-3,.06-1,.06-2,0-3,.06-1,.06-2,0-3,.06-1,.06-2,0-3,.06-1,.06-2,0-3,.06-1,.06-2,0-3,.06-1,.06-2,0-3,.06-1,.06-2,0-3,.06-1,.06-2,0-3,.06-1,.06-2,0-3,.06-1,.06-2,0-3,.06-1,.06-2,0-3,.06-1,.06-2,0-3,.06-1,.06-2,0-3,.06-1,.06-2,0-3,.06-1,.06-2,0-3,.06-1,.06-2,0-3,.06-1,.06-2,0-3,.06-1,.06-2,0-3,.06-1,.06-2,0-3,.06-1,.06-2,0-3,.06-1,.06-2,0-3,.06-1,.06-2,0-3,.06-1,.06-2,0-3,.06-1,.06-2,0-3,.06-1,.06-2,0-3,.06-1,.06-2,0-3,.06-1,.06-2,0-3,.06-1,.06-2,0-3,.06-1,.06-2,0-3,.06-1,.06-2,0-3,.06-1,.06-2,0-3,.06-1,.06-2,0-3,.32-5.52-1.11-11.14-4.55-16.66,3.6-5.7,5.13-11.6,4.81-17.44.06-1,.05-2,0-3,.06-1,.05-2,0-3,.06-1,.05-2,0-3,.06-1,.05-2,0-3,.06-1,.05-2,0-3,.06-1,.05-2,0-3,.06-1,.05-2,0-3,.06-1,.05-2,0-3,.06-1,.05-2,0-3,.06-1,.05-2,0-3,.06-1,.05-2,0-3,.06-1,.05-2,0-3,.06-1,.05-2,0-3,.06-1,.05-2,0-3,.06-1,.05-2,0-3,.06-1,.05-2,0-3,.06-1,.05-2,0-3,.06-1,.05-2,0-3,.06-1,.05-2,0-3,.06-1,.05-2,0-3,.06-1,.05-2,0-3,.06-1,.05-2,0-3,.06-1,.05-2,0-3,.06-1,.05-2,0-3,.06-1,.05-2,0-3,.06-1,.05-2,0-3,.06-1,.05-2,0-3,.06-1,.05-2,0-3,.06-1,.05-2,0-3,.06-1,.05-2,0-3,.06-1,.05-2,0-3,.06-1,.05-2,0-3,.06-1,.05-2,0-3,.06-1,.05-2,0-3,.06-1,.05-2,0-3,.06-1,.05-2,0-3,.06-1,.05-2,0-3,.06-1,.05-2,0-3,.06-1,.05-2,0-3,.06-1,.05-2,0-3,.06-1,.05-2,0-3,.06-1,.05-2,0-3,.06-1,.05-2,0-3,.06-1,.05-2,0-3,.06-1,.05-2,0-3,.06-1,.05-2,0-3Z"/>
  <path class="cls-1" d="M477.24,35.23c.98.45,16.26,1.49,22.49,3.39,45.92,14,6.76,71.04-11.49,90.66l-47.31,41.06c1,.49,11.91-1.23,13.93-2.44,6.66-3.97,21.46-23.11,30.07-30.21,26.05-21.48,91.9-64.98,146.87-58.39,10.34,1.24,17.54,8.96,22.94,9.5,4.33.43,20.87-1.51,29.97-1.09,66.09,3.04,105.88,43.72,76.25,74.9-2.99,3.14-12.95,8.47-13.84,10.24-1.79,3.56,4.6,11.66,1.76,18.21-6.95,16.03-68.73,26.32-95.74,29.35-45.13,5.06-92,6.24-137.86,3.58l.03,4.34c52.78-3.54,108.65-1.54,159.77,6.53,30.41,4.81,77.4,14.51,74.48,34.76-.44,3.03-4.95,7.33-4.67,8.76.2,1.03,17.17,12.73,20.5,17.7,21.67,32.35-26.38,68.28-91.69,68.69-6.77.04-17.24-2.2-21.56-1.44-3.75.65-4.78,3.71-7.63,4.8-24.1,9.16-44.18,5.36-67.7-1.79-43.94-13.36-73.23-38.86-102.82-59.69,21.54,24.15,68.61,75.32,36.98,99.95-11.79,9.19-25.56,6.68-32.86,10.25-3.61,1.77-11.08,11.88-16.78,15.82-37.76,26.06-116.67,24.59-153.8-1.45-4.56-3.2-14.09-14.59-15.4-15.09-5.96-2.27-18.07-.98-27.55-5.8-29.98-15.26-7.06-55.42,6.17-73.62,13.88-19.1,33.9-36.99,57.21-53.25l-13.47.15c-15.11,21.03-44.01,44.19-73.28,60.75-23.22,13.14-74.12,36.68-109.86,25.89-5.97-1.8-10.04-6.84-11.97-7.08-9.98-1.27-28.45.74-40.53-.1-60.84-4.19-96.32-44.45-70.15-72.92,3.1-3.37,15.13-10.68,15.76-12.08,1.43-3.13-5.6-7.73-4.98-12.57,3.34-26.02,103.51-35.95,142.13-38.41,10.95-.7,27.74,2.04,34.08-3.07-43.35,1.5-177.59-9.99-175.39-41.12.23-3.23,5.08-6.7,4.08-10.08-.76-2.59-15.29-12.01-18.89-17.64-17.23-26.9,15.61-62.88,71.08-67.1,12.2-.93,34.24.97,42.92-.61s10.83-10.55,36.12-9.96c53.32,1.25,110.32,44.6,139.23,65.29-20.96-23-66.34-75.55-34.52-98.66,10.64-7.73,24.53-6.19,31.75-9.39,2.57-1.14,10.9-11.93,15.38-15.11,40.02-28.33,126.14-25.38,161.51,4.7,3.04,2.58,7.41,10.5,8.25,10.88ZM330.71,168.88l-33.03-23.18,19.36,24.62,13.67-1.44ZM256.34,224.01l-35.82.71c9.62,4.77,24.6.07,35.77,3.63l.04-4.34ZM454.31,282.2l-13.38.52,30.26,21.03-16.88-21.55Z"/>
  <path class="cls-2" d="M400.09,195.39c.16.07,2.59.24,3.58.54,7.32,2.23,1.08,11.32-1.83,14.45l-7.54,6.54c.16.08,1.9-.2,2.22-.39,1.06-.63,3.42-3.68,4.79-4.81,4.15-3.42,14.65-10.36,23.41-9.3,1.65.2,2.8,1.43,3.66,1.51.69.07,3.33-.24,4.78-.17,10.53.48,16.87,6.97,12.15,11.94-.48.5-2.06,1.35-2.21,1.63-.29.57.73,1.86.28,2.9-1.11,2.56-10.95,4.19-15.26,4.68-7.19.81-14.66,1-21.97.57v.69c8.42-.56,17.32-.25,25.47,1.04,4.85.77,12.33,2.31,11.87,5.54-.07.48-.79,1.17-.74,1.4.03.16,2.74,2.03,3.27,2.82,3.45,5.16-4.2,10.88-14.61,10.95-1.08,0-2.75-.35-3.44-.23-.6.1-.76.59-1.22.76-3.84,1.46-7.04.85-10.79-.29-7-2.13-11.67-6.19-16.39-9.51,3.43,3.85,10.93,12,5.89,15.93-1.88,1.46-4.07,1.06-5.24,1.63-.58.28-1.77,1.89-2.67,2.52-6.02,4.15-18.59,3.92-24.51-.23-.73-.51-2.24-2.33-2.45-2.41-.95-.36-2.88-.16-4.39-.92-4.78-2.43-1.13-8.83.98-11.73,2.21-3.04,5.4-5.89,9.12-8.49l-2.15.02c-2.41,3.35-7.01,7.04-11.68,9.68-3.7,2.09-11.81,5.85-17.51,4.13-.95-.29-1.6-1.09-1.91-1.13-1.59-.2-4.53.12-6.46-.02-9.7-.67-15.35-7.08-11.18-11.62.49-.54,2.41-1.7,2.51-1.93.23-.5-.89-1.23-.79-2,.53-4.15,16.5-5.73,22.65-6.12,1.74-.11,4.42.32,5.43-.49-6.91.24-28.3-1.59-27.95-6.55.04-.51.81-1.07.65-1.61-.12-.41-2.44-1.91-3.01-2.81-2.75-4.29,2.49-10.02,11.33-10.69,1.94-.15,5.46.15,6.84-.1s1.73-1.68,5.76-1.59c8.5.2,17.58,7.11,22.19,10.4-3.34-3.67-10.57-12.04-5.5-15.72,1.7-1.23,3.91-.99,5.06-1.5.41-.18,1.74-1.9,2.45-2.41,6.38-4.51,20.1-4.04,25.74.75.48.41,1.18,1.67,1.32,1.73ZM376.73,216.69l-5.26-3.69,3.08,3.92,2.18-.23ZM364.88,225.47l-5.71.11c1.53.76,3.92.01,5.7.58v-.69ZM396.43,234.75l-2.13.08,4.82,3.35-2.69-3.43Z"/>
</svg>